<svg width="1080" height="1080" viewBox="0 0 1080 1080" fill="none" xmlns="http://www.w3.org/2000/svg">
<path d="M512.146 449.601C513.201 458.053 513.728 478.391 513.728 510.615H544.981C561.86 510.615 577.42 509.823 591.661 508.238C593.244 511.672 594.035 517.219 594.035 524.878C594.035 534.651 591.793 541.519 587.31 545.481C582.826 549.179 574.782 551.028 563.178 551.028H513.728C513.728 595.666 514.783 622.475 516.893 631.456C528.497 631.984 537.86 632.248 544.981 632.248C587.969 632.248 615.661 629.211 628.056 623.136C631.221 631.06 632.803 640.172 632.803 650.473C632.803 659.454 629.243 665.397 622.122 668.302C615.265 671.208 601.419 672.661 580.585 672.661C517.553 672.661 481.026 672.396 471.004 671.868C463.356 671.604 458.213 669.755 455.576 666.321C452.938 662.888 451.62 657.209 451.62 649.285C451.62 645.059 451.752 635.286 452.015 619.966C452.279 604.647 452.411 592.364 452.411 583.12V503.88C452.411 466.637 450.697 435.866 447.268 411.566C481.289 409.188 515.97 408 551.31 408C589.288 408 613.947 410.113 625.287 414.339C630.298 416.188 632.803 421.471 632.803 430.187C632.803 440.488 631.221 449.469 628.056 457.128C610.65 451.582 581.244 448.808 539.838 448.808C534.563 448.808 525.333 449.072 512.146 449.601Z" fill="black"/>
<path d="M508.415 461.213C509.414 469.202 509.913 488.425 509.913 518.883H539.497C555.475 518.883 570.204 518.134 583.686 516.636C585.184 519.881 585.933 525.124 585.933 532.364C585.933 541.601 583.811 548.092 579.566 551.837C575.322 555.332 567.708 557.08 556.723 557.08H509.913C509.913 599.271 510.911 624.611 512.909 633.1C523.893 633.599 532.756 633.848 539.497 633.848C580.191 633.848 606.404 630.977 618.138 625.235C621.134 632.725 622.632 641.338 622.632 651.075C622.632 659.563 619.261 665.18 612.521 667.926C606.03 670.672 592.923 672.046 573.2 672.046C513.533 672.046 478.956 671.796 469.469 671.297C462.229 671.047 457.361 669.299 454.864 666.054C452.368 662.808 451.119 657.441 451.119 649.951C451.119 645.957 451.244 636.72 451.494 622.24C451.743 607.76 451.868 596.151 451.868 587.413V512.517C451.868 477.315 450.246 448.231 447 425.262C479.205 423.016 512.035 421.892 545.489 421.892C581.439 421.892 604.781 423.889 615.517 427.884C620.26 429.631 622.632 434.624 622.632 442.863C622.632 452.6 621.134 461.088 618.138 468.328C601.661 463.085 573.824 460.464 534.629 460.464C529.636 460.464 520.898 460.713 508.415 461.213Z" fill="#222222"/>
<path d="M470.46 455.066V443.47C470.46 440.456 472.903 438.013 475.917 438.013H519.572" stroke="white" stroke-width="6.82115" stroke-linecap="round"/>
<path d="M497.745 634.462V646.058C497.745 649.072 500.188 651.515 503.202 651.515H546.857M567.734 533.509H518.622" stroke="white" stroke-width="6.82115" stroke-linecap="round"/>
</svg>
